<?xml version="1.0" encoding="UTF-8"?>
<!DOCTYPE svg PUBLIC "-//W3C//DTD SVG 1.1//EN" "http://www.w3.org/Graphics/SVG/1.1/DTD/svg11.dtd">
<svg xmlns="http://www.w3.org/2000/svg" version="1.1" width="192px" height="192px" style="shape-rendering:geometricPrecision; text-rendering:geometricPrecision; image-rendering:optimizeQuality; fill-rule:evenodd; clip-rule:evenodd" xmlns:xlink="http://www.w3.org/1999/xlink">
<g><path style="opacity:0.988" fill="#010055" d="M 78.5,-0.5 C 89.8333,-0.5 101.167,-0.5 112.5,-0.5C 154.833,9.83333 181.167,36.1667 191.5,78.5C 191.5,89.8333 191.5,101.167 191.5,112.5C 181.167,154.833 154.833,181.167 112.5,191.5C 101.167,191.5 89.8333,191.5 78.5,191.5C 36.1667,181.167 9.83333,154.833 -0.5,112.5C -0.5,101.167 -0.5,89.8333 -0.5,78.5C 9.83333,36.1667 36.1667,9.83333 78.5,-0.5 Z"/></g>
<g><path style="opacity:1" fill="#fbfbfc" d="M 73.5,79.5 C 74.5,79.5 75.5,79.5 76.5,79.5C 76.5,90.1667 76.5,100.833 76.5,111.5C 75.5,111.5 74.5,111.5 73.5,111.5C 73.5,100.833 73.5,90.1667 73.5,79.5 Z"/></g>
<g><path style="opacity:1" fill="#e6e6ee" d="M 36.5,80.5 C 39.8329,80.0268 41.9996,81.3601 43,84.5C 45.7427,93.56 48.5761,102.56 51.5,111.5C 47.1401,110.835 45.1401,108.168 45.5,103.5C 41.1539,103.334 36.8206,103.501 32.5,104C 31.1981,106.213 30.1981,108.546 29.5,111C 28.0563,111.781 26.723,111.614 25.5,110.5C 28.8656,100.358 32.5323,90.3577 36.5,80.5 Z"/></g>
<g><path style="opacity:1" fill="#e6e6ee" d="M 62.5,107.5 C 63.9187,108.451 65.5853,108.784 67.5,108.5C 67.5,109.5 67.5,110.5 67.5,111.5C 64.3148,111.98 61.4815,111.314 59,109.5C 57.5899,103.621 57.0899,97.6208 57.5,91.5C 56.5,91.5 55.5,91.5 54.5,91.5C 54.5,90.5 54.5,89.5 54.5,88.5C 55.5,88.5 56.5,88.5 57.5,88.5C 57.5,86.5 57.5,84.5 57.5,82.5C 58.8333,82.5 60.1667,82.5 61.5,82.5C 61.5,84.5 61.5,86.5 61.5,88.5C 63.5,88.5 65.5,88.5 67.5,88.5C 67.5,89.5 67.5,90.5 67.5,91.5C 65.5,91.5 63.5,91.5 61.5,91.5C 61.1786,97.0262 61.5119,102.36 62.5,107.5 Z"/></g>
<g><path style="opacity:1" fill="#e3e3ec" d="M 132.5,82.5 C 133.833,82.5 135.167,82.5 136.5,82.5C 136.5,84.5 136.5,86.5 136.5,88.5C 138.5,88.5 140.5,88.5 142.5,88.5C 142.5,89.5 142.5,90.5 142.5,91.5C 140.5,91.5 138.5,91.5 136.5,91.5C 136.334,96.8437 136.501,102.177 137,107.5C 138.667,108.833 140.333,108.833 142,107.5C 142.49,108.793 142.657,110.127 142.5,111.5C 138.713,112.186 135.546,111.186 133,108.5C 132.501,102.843 132.334,97.1764 132.5,91.5C 131.167,91.5 129.833,91.5 128.5,91.5C 128.5,90.5 128.5,89.5 128.5,88.5C 129.833,88.5 131.167,88.5 132.5,88.5C 132.5,86.5 132.5,84.5 132.5,82.5 Z"/></g>
<g><path style="opacity:1" fill="#130d5d" d="M 43.5,99.5 C 39.9878,100.055 36.9878,99.3878 34.5,97.5C 35.3941,93.245 36.8941,89.245 39,85.5C 40.6086,90.1584 42.1086,94.8251 43.5,99.5 Z"/></g>
<g><path style="opacity:1" fill="#ededf3" d="M 87.5,88.5 C 97.9995,86.6683 102.666,91.0016 101.5,101.5C 96.5,101.5 91.5,101.5 86.5,101.5C 88.741,108.724 93.241,110.391 100,106.5C 100.783,108.433 100.283,109.933 98.5,111C 85.5456,112.958 80.3789,107.458 83,94.5C 84.332,92.34 85.832,90.34 87.5,88.5 Z"/></g>
<g><path style="opacity:1" fill="#e6e5ee" d="M 106.5,88.5 C 107.833,88.5 109.167,88.5 110.5,88.5C 110.443,92.1331 111.443,92.2998 113.5,89C 117.591,87.7728 121.091,88.6061 124,91.5C 125.42,98.0496 125.92,104.716 125.5,111.5C 124.167,111.5 122.833,111.5 121.5,111.5C 121.666,105.491 121.499,99.4908 121,93.5C 117.073,90.5516 113.739,91.2183 111,95.5C 110.501,100.823 110.334,106.156 110.5,111.5C 109.167,111.5 107.833,111.5 106.5,111.5C 106.5,103.833 106.5,96.1667 106.5,88.5 Z"/></g>
<g><path style="opacity:1" fill="#ededf3" d="M 152.5,98.5 C 155.167,98.5 157.833,98.5 160.5,98.5C 160.784,96.5853 160.451,94.9187 159.5,93.5C 156.111,90.8556 152.611,90.8556 149,93.5C 148.035,89.086 149.868,87.4194 154.5,88.5C 157.861,88.1119 160.694,89.1119 163,91.5C 163.5,98.1583 163.666,104.825 163.5,111.5C 160.323,110.323 157.157,110.323 154,111.5C 146.685,110.369 144.852,106.536 148.5,100C 149.745,99.2086 151.078,98.7086 152.5,98.5 Z"/></g>
<g><path style="opacity:1" fill="#0f0a5c" d="M 89.5,91.5 C 95.1826,90.6464 97.8493,92.9797 97.5,98.5C 93.8333,98.5 90.1667,98.5 86.5,98.5C 86.1496,95.5466 87.1496,93.2133 89.5,91.5 Z"/></g>
<g><path style="opacity:1" fill="#9292b6" d="M 159.5,93.5 C 160.451,94.9187 160.784,96.5853 160.5,98.5C 157.833,98.5 155.167,98.5 152.5,98.5C 154.607,97.5318 156.941,97.1984 159.5,97.5C 159.5,96.1667 159.5,94.8333 159.5,93.5 Z"/></g>
<g><path style="opacity:1" fill="#616095" d="M 34.5,97.5 C 36.9878,99.3878 39.9878,100.055 43.5,99.5C 40.3752,100.479 37.0419,100.813 33.5,100.5C 33.2627,99.209 33.596,98.209 34.5,97.5 Z"/></g>
<g><path style="opacity:1" fill="#0d095b" d="M 153.5,101.5 C 155.5,101.5 157.5,101.5 159.5,101.5C 159.5,102.833 159.5,104.167 159.5,105.5C 157.947,108.254 155.614,109.087 152.5,108C 149.757,105.389 150.09,103.222 153.5,101.5 Z"/></g>
<g><path style="opacity:1" fill="#70709f" d="M 153.5,101.5 C 155.607,100.532 157.941,100.198 160.5,100.5C 160.784,102.415 160.451,104.081 159.5,105.5C 159.5,104.167 159.5,102.833 159.5,101.5C 157.5,101.5 155.5,101.5 153.5,101.5 Z"/></g>
<g><path style="opacity:1" fill="#55538c" d="M 62.5,107.5 C 64.5,107.5 66.5,107.5 68.5,107.5C 68.7678,109.099 68.4345,110.432 67.5,111.5C 67.5,110.5 67.5,109.5 67.5,108.5C 65.5853,108.784 63.9187,108.451 62.5,107.5 Z"/></g>
</svg>
